<?xml version="1.0" standalone="no"?>
<!DOCTYPE svg PUBLIC "-//W3C//DTD SVG 20010904//EN"
 "http://www.w3.org/TR/2001/REC-SVG-20010904/DTD/svg10.dtd">
<svg version="1.0" xmlns="http://www.w3.org/2000/svg"
 width="128.000000pt" height="128.000000pt" viewBox="0 0 128.000000 128.000000"
 preserveAspectRatio="xMidYMid meet">
<metadata>
Created by potrace 1.11, written by Peter Selinger 2001-2013
</metadata>
<g transform="translate(0.000000,128.000000) scale(0.100000,-0.100000)"
fill="#000000" stroke="none">
<path d="M7 1273 c-12 -22 -5 -106 12 -163 38 -122 123 -237 224 -302 26 -16
47 -32 47 -33 0 -2 -5 -16 -10 -30 -6 -15 -13 -47 -16 -73 -4 -40 -13 -53 -64
-101 -36 -35 -67 -75 -81 -106 -29 -66 -34 -173 -11 -237 24 -67 77 -138 103
-138 12 0 23 -8 26 -20 3 -10 26 -30 52 -42 45 -22 53 -23 351 -23 l305 0 59
30 c150 76 218 245 164 407 -17 51 -33 75 -84 124 -53 53 -63 68 -68 108 -4
25 -11 58 -16 72 -6 14 -10 27 -10 28 0 2 19 16 43 31 60 39 97 76 97 97 0 10
11 23 24 28 52 20 129 198 124 289 l-3 56 -55 3 c-61 4 -106 -7 -189 -46 -104
-48 -183 -121 -244 -224 l-36 -61 -115 -1 c-78 -1 -116 3 -116 10 0 19 -76
129 -116 168 -94 92 -231 156 -333 156 -33 0 -62 -3 -64 -7z"/>
</g>
</svg>
