<?xml version="1.0" standalone="no"?>
<!DOCTYPE svg PUBLIC "-//W3C//DTD SVG 20010904//EN"
 "http://www.w3.org/TR/2001/REC-SVG-20010904/DTD/svg10.dtd">
<svg version="1.0" xmlns="http://www.w3.org/2000/svg"
 width="2606.000000pt" height="2606.000000pt" viewBox="0 0 2606.000000 2606.000000"
 preserveAspectRatio="xMidYMid meet">
<metadata>
Created by potrace 1.14, written by Peter Selinger 2001-2017
</metadata>
<g transform="translate(0.000000,2606.000000) scale(0.100000,-0.100000)"
fill="#000000" stroke="none">
<path d="M6116 17420 c-1 -3 -2 -43 -1 -90 l0 -85 145 -1 c248 -2 368 -24 490
-91 160 -87 232 -182 255 -333 3 -19 8 -51 12 -70 3 -19 8 -1153 9 -2520 4
-2719 7 -2535 -55 -2693 -42 -106 -64 -143 -118 -208 -133 -157 -368 -244
-683 -253 l-55 -1 0 -85 0 -85 1118 -3 1117 -2 0 90 0 90 -77 1 c-119 1 -155
5 -307 35 -233 45 -425 200 -513 414 -34 83 -39 110 -50 255 -8 115 -11 4135
-3 4653 l5 343 317 -738 c175 -406 458 -1066 631 -1468 173 -401 354 -822 402
-935 48 -113 98 -227 110 -255 12 -27 89 -205 170 -395 81 -190 156 -365 168
-390 11 -25 62 -144 114 -265 52 -121 105 -244 119 -273 13 -29 24 -55 24 -58
0 -3 9 -24 19 -47 10 -23 74 -170 141 -327 67 -157 132 -307 145 -335 12 -27
56 -128 96 -223 l74 -173 59 3 59 3 94 225 c52 124 130 308 173 410 43 102
227 541 409 975 183 435 338 804 346 820 7 17 54 127 103 245 111 264 121 287
137 325 14 31 238 564 330 785 77 185 876 2080 891 2115 11 25 13 -400 11
-2570 -2 -1430 -7 -2625 -11 -2655 -34 -250 -150 -393 -371 -459 -116 -34
-176 -40 -445 -45 l-85 -1 -2 -87 -2 -88 1704 0 1705 0 0 89 0 90 -162 0
c-146 1 -218 7 -312 26 -106 22 -270 114 -330 186 -42 49 -77 126 -86 188 -5
31 -12 72 -16 91 -11 51 -14 5028 -3 5130 12 114 37 219 60 252 11 14 19 30
19 35 0 5 24 37 54 69 121 134 315 191 642 188 l132 -1 1 89 c1 78 -1 88 -16
89 -87 4 -2635 1 -2639 -3 -2 -3 -306 -738 -675 -1634 -368 -896 -674 -1638
-679 -1649 -10 -22 -295 -712 -367 -890 -25 -60 -46 -111 -48 -113 -1 -2 -105
237 -230 530 -249 585 -400 940 -643 1508 -88 206 -219 515 -292 685 -72 171
-138 324 -145 340 -16 35 -308 720 -405 950 -97 229 -118 275 -127 276 -43 3
-2655 3 -2657 -1z"/>
<path d="M16648 17422 c-16 -2 -28 -6 -29 -10 0 -4 -1 -43 -2 -87 l-1 -80 204
-1 c298 -3 441 -38 576 -140 133 -101 173 -190 191 -425 4 -57 8 -1078 8
-2269 0 -1908 -4 -2432 -20 -2585 -2 -22 -7 -69 -10 -105 -28 -295 -151 -483
-360 -550 -51 -16 -100 -23 -180 -25 -98 -2 -133 1 -250 21 -54 10 -179 67
-233 106 -91 67 -140 157 -129 238 4 32 27 86 71 165 9 17 59 95 112 175 113
173 124 203 129 371 2 60 -3 119 -11 155 -8 33 -16 66 -18 75 -23 94 -124 229
-231 308 -137 100 -261 137 -450 134 -189 -4 -342 -70 -480 -208 -174 -174
-240 -408 -198 -700 36 -248 153 -464 378 -691 285 -290 621 -450 1085 -520
166 -25 584 -25 730 1 14 2 66 11 115 19 199 34 354 85 546 180 119 59 280
159 287 177 2 5 10 9 17 9 7 0 15 3 17 8 2 4 30 29 63 57 185 152 346 372 426
578 31 82 83 272 94 347 4 25 11 66 15 92 5 26 12 76 15 110 3 35 8 72 10 83
2 11 7 65 11 120 3 55 8 116 11 135 3 19 6 886 7 1925 3 1672 6 2003 21 2145
8 72 27 136 61 199 71 135 169 208 340 251 98 25 182 33 355 34 l145 0 0 90
-1 89 -1705 1 c-938 1 -1717 0 -1732 -2z"/>
</g>
</svg>
