<?xml version="1.0" standalone="no"?>
<!DOCTYPE svg PUBLIC "-//W3C//DTD SVG 20010904//EN"
 "http://www.w3.org/TR/2001/REC-SVG-20010904/DTD/svg10.dtd">
<svg version="1.0" xmlns="http://www.w3.org/2000/svg"
 width="2873.000000pt" height="2873.000000pt" viewBox="0 0 2873.000000 2873.000000"
 preserveAspectRatio="xMidYMid meet">
<metadata>
Created by potrace 1.14, written by Peter Selinger 2001-2017
</metadata>
<g transform="translate(0.000000,2873.000000) scale(0.100000,-0.100000)"
fill="#000000" stroke="none">
<path d="M6693 20672 l-63 -3 0 -4014 0 -4013 894 0 c671 0 895 3 898 11 2 7
4 992 4 2189 -1 1198 2 2178 5 2178 4 0 82 -125 174 -277 322 -533 580 -960
730 -1208 143 -235 219 -361 256 -423 49 -81 352 -583 448 -740 61 -101 111
-187 111 -192 0 -4 3 -10 8 -12 4 -1 15 -16 25 -33 9 -16 36 -62 60 -101 l42
-72 540 0 c490 0 540 1 552 16 10 13 479 786 568 936 11 19 124 205 250 415
127 209 248 411 271 448 22 37 166 275 319 528 153 253 315 520 359 594 l81
135 3 -2197 2 -2196 895 0 c492 1 896 4 896 7 1 4 2 1810 3 4015 l1 4007 -35
0 c-74 1 -1092 1 -1240 0 l-155 0 -31 -48 c-16 -27 -85 -138 -153 -248 -67
-109 -128 -208 -134 -218 -7 -11 -41 -67 -77 -126 -36 -59 -70 -115 -77 -126
-7 -10 -27 -43 -45 -73 -18 -29 -41 -65 -50 -80 -9 -14 -23 -37 -31 -51 -8
-14 -151 -245 -317 -515 -167 -269 -308 -499 -314 -510 -6 -11 -23 -38 -37
-60 -15 -22 -82 -130 -149 -240 -68 -110 -169 -274 -225 -365 -142 -230 -671
-1087 -769 -1247 -44 -73 -143 -234 -220 -358 l-138 -225 -131 213 c-71 116
-161 262 -198 322 -38 61 -74 119 -79 130 -6 11 -23 39 -38 62 -29 46 -62 100
-502 813 -160 261 -304 494 -319 517 -39 62 -83 134 -236 383 -76 124 -168
272 -203 330 -108 175 -221 358 -305 495 -44 72 -102 166 -130 210 -27 44 -86
139 -131 212 -44 73 -153 248 -240 390 -88 142 -180 291 -204 331 -25 41 -50
75 -56 78 -13 4 -1273 10 -1363 6z"/>
<path d="M20495 20670 l-70 -5 -1 -2595 c0 -2280 -3 -2674 -20 -2765 -2 -10
-6 -37 -9 -60 -26 -188 -124 -444 -228 -600 -224 -334 -549 -528 -957 -572
-134 -14 -398 -8 -490 12 -14 2 -34 7 -45 9 -263 54 -489 179 -680 375 -155
161 -291 416 -321 606 -3 17 -7 36 -10 44 -2 7 -7 52 -10 100 -4 47 -8 88 -11
91 -2 2 -406 5 -897 5 l-893 0 3 -70 c8 -164 15 -236 40 -390 47 -298 131
-557 265 -820 65 -130 174 -310 226 -377 16 -20 35 -46 43 -58 8 -12 22 -30
30 -40 8 -9 35 -42 60 -71 84 -100 291 -301 365 -354 15 -11 32 -24 39 -30 6
-5 33 -26 59 -45 27 -19 61 -45 77 -57 15 -13 33 -23 39 -23 6 0 11 -3 11 -8
0 -4 9 -12 19 -17 11 -6 71 -40 133 -76 277 -162 592 -282 913 -348 168 -34
322 -58 440 -66 44 -3 105 -8 135 -11 73 -7 426 -6 520 1 101 7 279 24 310 30
14 2 45 7 70 10 189 25 602 137 724 196 22 10 44 19 49 19 10 0 270 122 277
130 3 3 50 32 105 63 55 31 120 71 145 89 71 51 194 142 206 153 6 5 42 37 80
70 128 113 307 310 394 435 13 19 30 41 37 48 7 7 13 17 13 22 0 5 6 15 13 22
14 15 137 216 137 224 0 3 9 18 19 32 10 15 19 29 19 32 1 3 20 46 43 95 52
113 118 284 152 395 58 187 116 478 132 660 4 41 10 84 13 95 3 11 7 1229 9
2708 l4 2687 -103 0 c-883 4 -1567 4 -1623 0z"/>
</g>
</svg>
